REM MD5 2cf90e16f6a82859f94008f71a3d8062
FILE "Meguri Ai shite (Japan).bin" BINARY
  TRACK 01 MODE2/2352
    INDEX 01 00:00:00
  TRACK 02 AUDIO
    INDEX 00 56:25:25
    INDEX 01 56:27:25
  TRACK 03 AUDIO
    INDEX 00 59:24:64
    INDEX 01 59:26:64
REM LEADOUT 62:24:28
